# Blender v2.82 (sub 7) OBJ File: 'LD46.blend'
# www.blender.org
mtllib DNA.mtl
o DNA_Cube.001
v -0.885423 0.004219 0.202506
v 0.368435 2.004220 0.830204
v -0.885423 0.004219 -0.202506
v -0.029070 2.004220 0.907820
v -0.632923 0.004219 -0.202506
v -0.077459 2.004220 0.660001
v -0.632923 0.004219 0.202506
v 0.320046 2.004220 0.582384
v -0.873702 0.289934 0.248251
v -0.731606 0.575648 0.538271
v -0.275336 0.861362 0.865548
v 0.231181 1.147077 0.878372
v 0.368435 1.432791 0.830204
v 0.368435 1.718505 0.830204
v -0.029070 1.718505 0.907820
v -0.029070 1.432791 0.907820
v -0.173618 1.147077 0.891538
v -0.624203 0.861362 0.659813
v -0.898495 0.575648 0.133003
v -0.894751 0.289934 -0.156214
v 0.320046 1.718505 0.582384
v 0.320046 1.432791 0.582384
v 0.222922 1.147077 0.626147
v -0.136992 0.861362 0.650257
v -0.497782 0.575648 0.440243
v -0.621535 0.289934 0.235149
v -0.077459 1.718505 0.660001
v -0.077459 1.432791 0.660001
v -0.181825 1.147077 0.639171
v -0.489012 0.861362 0.449964
v -0.663006 0.575648 0.045873
v -0.642599 0.289934 -0.169315
v -0.024413 1.664458 0.649643
v 0.267000 1.664458 0.592742
v 0.267000 1.486839 0.592742
v -0.024413 1.486839 0.649643
v -0.182454 1.093029 0.623973
v 0.106183 1.093029 0.641371
v -0.116561 0.915410 0.639567
v -0.373898 0.915410 0.531819
v -0.648738 0.521600 0.042076
v -0.557752 0.521600 0.333983
v -0.616452 0.343982 0.206443
v -0.644053 0.343982 -0.088473
v 0.802563 0.004219 0.430124
v -0.053790 2.004220 -0.680203
v 0.802563 0.004219 0.025111
v -0.451295 2.004220 -0.602586
v 0.550063 0.004219 0.025111
v -0.402906 2.004220 -0.354766
v 0.550063 0.004219 0.430124
v -0.005400 2.004220 -0.432383
v 0.811892 0.289934 0.383832
v 0.815635 0.575648 0.094614
v 0.541343 0.861362 -0.432196
v 0.090758 1.147077 -0.663920
v -0.053790 1.432791 -0.680203
v -0.053790 1.718505 -0.680203
v -0.451295 1.718505 -0.602586
v -0.451295 1.432791 -0.602586
v -0.314040 1.147077 -0.650755
v 0.192476 0.861362 -0.637930
v 0.648746 0.575648 -0.310654
v 0.790842 0.289934 -0.020633
v -0.005400 1.718505 -0.432383
v -0.005400 1.432791 -0.432383
v 0.098966 1.147077 -0.411554
v 0.406152 0.861362 -0.222347
v 0.580095 0.575648 0.181886
v 0.559739 0.289934 0.396933
v -0.402906 1.718505 -0.354766
v -0.402906 1.432791 -0.354766
v -0.305833 1.147077 -0.398389
v 0.054132 0.861362 -0.422639
v 0.414922 0.575648 -0.212625
v 0.538675 0.289934 -0.007531
v -0.349860 1.664458 -0.365124
v -0.058446 1.664458 -0.422025
v -0.058446 1.486839 -0.422025
v -0.349860 1.486839 -0.365124
v -0.189043 1.093029 -0.413754
v 0.099594 1.093029 -0.396356
v 0.291039 0.915410 -0.304202
v 0.033701 0.915410 -0.411949
v 0.474892 0.521600 -0.106366
v 0.565879 0.521600 0.185541
v 0.561193 0.343982 0.316091
v 0.533592 0.343982 0.021174
v 0.120409 1.664458 0.041044
v -0.171005 1.664458 0.097945
v -0.171005 1.486839 0.097945
v 0.120409 1.486839 0.041044
v 0.113374 1.093029 0.121285
v -0.167502 1.093029 0.027406
v -0.128011 0.915410 -0.020376
v 0.073671 0.915410 0.169650
v -0.016616 0.521600 0.207579
v -0.036047 0.521600 -0.062914
v -0.027501 0.343982 -0.072913
v -0.023890 0.343982 0.214084
vt 0.589286 0.000000
vt 0.625000 0.000000
vt 0.625000 0.250000
vt 0.589286 0.250000
vt 0.589286 0.875000
vt 0.625000 0.875000
vt 0.625000 1.000000
vt 0.589286 1.000000
vt 0.750000 0.500000
vt 0.875000 0.500000
vt 0.875000 0.750000
vt 0.750000 0.750000
vt 0.428571 0.392857
vt 0.303571 0.767857
vt 0.250000 0.750000
vt 0.375000 0.375000
vt 0.125000 0.500000
vt 0.250000 0.500000
vt 0.125000 0.750000
vt 0.625000 0.375000
vt 0.589286 0.375000
vt 0.375000 0.250000
vt 0.410714 0.250000
vt 0.410714 0.375000
vt 0.446429 0.250000
vt 0.446429 0.375000
vt 0.482143 0.250000
vt 0.482143 0.375000
vt 0.517857 0.250000
vt 0.517857 0.375000
vt 0.553571 0.250000
vt 0.553571 0.375000
vt 0.571429 0.857143
vt 0.696429 0.482143
vt 0.642857 0.464286
vt 0.517857 0.839286
vt 0.464286 0.821429
vt 0.589286 0.446429
vt 0.535714 0.428571
vt 0.410714 0.803571
vt 0.357143 0.785714
vt 0.482143 0.410714
vt 0.375000 0.875000
vt 0.410714 0.875000
vt 0.410714 1.000000
vt 0.375000 1.000000
vt 0.446429 0.875000
vt 0.446429 1.000000
vt 0.482143 0.875000
vt 0.482143 1.000000
vt 0.517857 0.875000
vt 0.517857 1.000000
vt 0.553571 0.875000
vt 0.553571 1.000000
vt 0.375000 0.000000
vt 0.410714 0.000000
vt 0.446429 0.000000
vt 0.482143 0.000000
vt 0.517857 0.000000
vt 0.553571 0.000000
vt 0.577976 0.803722
vt 0.669614 0.528807
vt 0.544672 0.792621
vt 0.636310 0.517706
vt 0.470833 0.768008
vt 0.562471 0.493093
vt 0.437529 0.756907
vt 0.529167 0.481992
vt 0.363690 0.732294
vt 0.455328 0.457379
vt 0.330386 0.721192
vt 0.422025 0.446278
vt 0.589286 0.000000
vt 0.589286 0.250000
vt 0.625000 0.250000
vt 0.625000 0.000000
vt 0.589286 0.875000
vt 0.589286 1.000000
vt 0.625000 1.000000
vt 0.625000 0.875000
vt 0.750000 0.500000
vt 0.750000 0.750000
vt 0.875000 0.750000
vt 0.875000 0.500000
vt 0.428571 0.392857
vt 0.375000 0.375000
vt 0.250000 0.750000
vt 0.303571 0.767857
vt 0.125000 0.500000
vt 0.125000 0.750000
vt 0.250000 0.500000
vt 0.589286 0.375000
vt 0.625000 0.375000
vt 0.375000 0.250000
vt 0.410714 0.375000
vt 0.410714 0.250000
vt 0.446429 0.375000
vt 0.446429 0.250000
vt 0.482143 0.375000
vt 0.482143 0.250000
vt 0.517857 0.375000
vt 0.517857 0.250000
vt 0.553571 0.375000
vt 0.553571 0.250000
vt 0.696429 0.482143
vt 0.571429 0.857143
vt 0.642857 0.464286
vt 0.589286 0.446429
vt 0.464286 0.821429
vt 0.517857 0.839286
vt 0.535714 0.428571
vt 0.482143 0.410714
vt 0.357143 0.785714
vt 0.410714 0.803571
vt 0.375000 0.875000
vt 0.375000 1.000000
vt 0.410714 1.000000
vt 0.410714 0.875000
vt 0.446429 1.000000
vt 0.446429 0.875000
vt 0.482143 1.000000
vt 0.482143 0.875000
vt 0.517857 1.000000
vt 0.517857 0.875000
vt 0.553571 1.000000
vt 0.553571 0.875000
vt 0.375000 0.000000
vt 0.410714 0.000000
vt 0.446429 0.000000
vt 0.482143 0.000000
vt 0.517857 0.000000
vt 0.553571 0.000000
vt 0.669614 0.528807
vt 0.577976 0.803722
vt 0.544672 0.792621
vt 0.636310 0.517706
vt 0.562471 0.493093
vt 0.470833 0.768008
vt 0.437529 0.756907
vt 0.529167 0.481992
vt 0.455328 0.457379
vt 0.363690 0.732294
vt 0.330386 0.721192
vt 0.422025 0.446278
vt 0.669614 0.528807
vt 0.636310 0.517706
vt 0.544672 0.792621
vt 0.577976 0.803722
vt 0.562471 0.493093
vt 0.529167 0.481992
vt 0.437529 0.756907
vt 0.470833 0.768008
vt 0.455328 0.457379
vt 0.422025 0.446278
vt 0.330386 0.721192
vt 0.363690 0.732294
vn 0.1916 0.0000 0.9815
vn 0.9815 0.0000 -0.1916
vn 0.0000 1.0000 0.0000
vn 0.9997 -0.0000 -0.0260
vn 0.0000 -1.0000 0.0000
vn -0.9815 0.0000 0.1916
vn -0.0257 0.1369 -0.9903
vn -0.1529 0.6503 -0.7441
vn -0.3086 0.8697 -0.3852
vn -0.5414 0.8275 -0.1487
vn -0.9143 0.3916 0.1035
vn -0.1916 0.0000 -0.9815
vn -0.1123 -0.0003 -0.9937
vn 0.7545 -0.0008 -0.6563
vn 0.0257 -0.1369 0.9903
vn 0.1617 -0.6881 0.7073
vn 0.3353 -0.8538 0.3982
vn 0.5456 -0.8242 0.1518
vn 0.9143 -0.3917 -0.1036
vn -0.9997 0.0000 0.0260
vn -0.9741 0.0067 0.2261
vn -0.7641 0.0129 0.6450
vn -0.2476 0.0000 0.9689
vn 0.1124 0.0000 0.9937
vn 0.0063 -0.0071 -1.0000
vn -0.0470 0.0110 -0.9988
vn 0.4510 0.0218 -0.8922
vn 0.5031 -0.0167 -0.8641
vn 0.9361 -0.0400 -0.3495
vn 0.9222 -0.0939 -0.3750
vn 0.9976 -0.0000 -0.0694
vn 0.9715 0.1732 -0.1616
vn -0.0257 -0.1369 -0.9903
vn -0.1617 -0.6881 -0.7073
vn -0.3353 -0.8538 -0.3982
vn -0.5456 -0.8242 -0.1518
vn -0.9143 -0.3916 0.1035
vn -0.7546 -0.0008 0.6562
vn 0.0257 0.1369 0.9903
vn 0.1532 0.6502 0.7441
vn 0.3087 0.8697 0.3852
vn 0.5414 0.8275 0.1487
vn 0.9143 0.3916 -0.1035
vn 0.9741 0.0067 -0.2261
vn 0.7641 0.0129 -0.6450
vn 0.2476 -0.0000 -0.9689
vn -0.1124 -0.0000 -0.9937
vn -0.0061 -0.0082 0.9999
vn -0.5031 -0.0167 0.8641
vn -0.4510 0.0218 0.8922
vn 0.0485 0.0126 0.9987
vn -0.9361 -0.0410 0.3493
vn -0.9718 0.1724 0.1607
vn -0.9976 -0.0000 0.0694
vn -0.9222 -0.0939 0.3750
vn -0.5071 0.0017 0.8619
vn -0.9991 -0.0040 0.0413
vn -0.0676 0.3649 -0.9286
vn 0.0981 -0.3372 0.9363
vn -0.9328 0.0000 0.3603
vn 0.9328 0.0000 -0.3603
vn -0.9665 0.0000 0.2568
vn 0.9665 0.0000 -0.2568
vn 0.0449 -0.3061 -0.9509
vn -0.0637 0.3611 0.9304
vn 0.8038 -0.5729 0.1603
vn -0.8707 0.4503 -0.1977
vn 0.8769 0.4458 0.1800
vn -0.8054 -0.5770 -0.1356
g DNA_Cube.001_Support
usemtl Support
s off
f 14/1/1 2/2/1 4/3/1 15/4/1
f 21/5/2 8/6/2 2/7/2 14/8/2
f 6/9/3 4/10/3 2/11/3 8/12/3
f 32/13/4 26/14/4 7/15/4 5/16/4
f 3/17/5 5/18/5 7/15/5 1/19/5
f 15/4/6 4/3/6 6/20/6 27/21/6
f 3/22/7 20/23/7 32/24/7 5/16/7
f 20/23/8 19/25/8 31/26/8 32/24/8
f 19/25/9 18/27/9 30/28/9 31/26/9
f 18/27/10 17/29/10 29/30/10 30/28/10
f 17/29/11 16/31/11 28/32/11 29/30/11
f 16/31/6 15/4/6 27/21/6 28/32/6
f 6/9/12 8/6/12 21/33/12 27/34/12
f 28/35/13 22/36/13 23/37/13 29/38/13
f 30/39/14 24/40/14 25/41/14 31/42/14
f 7/43/15 26/44/15 9/45/15 1/46/15
f 26/44/16 25/47/16 10/48/16 9/45/16
f 25/47/17 24/49/17 11/50/17 10/48/17
f 24/49/18 23/51/18 12/52/18 11/50/18
f 23/51/19 22/53/19 13/54/19 12/52/19
f 22/53/2 21/5/2 14/8/2 13/54/2
f 1/55/20 9/56/20 20/23/20 3/22/20
f 9/56/21 10/57/21 19/25/21 20/23/21
f 10/57/22 11/58/22 18/27/22 19/25/22
f 11/58/23 12/59/23 17/29/23 18/27/23
f 12/59/24 13/60/24 16/31/24 17/29/24
f 13/60/1 14/1/1 15/4/1 16/31/1
f 27/34/12 21/33/12 34/61/12 33/62/12
f 21/33/12 22/36/12 35/63/12 34/61/12
f 22/36/12 28/35/12 36/64/12 35/63/12
f 28/35/12 27/34/12 33/62/12 36/64/12
f 29/38/25 23/37/25 38/65/25 37/66/25
f 23/37/26 24/40/26 39/67/26 38/65/26
f 24/40/27 30/39/27 40/68/27 39/67/27
f 30/39/28 29/38/28 37/66/28 40/68/28
f 31/42/29 25/41/29 42/69/29 41/70/29
f 25/41/30 26/14/30 43/71/30 42/69/30
f 26/14/31 32/13/31 44/72/31 43/71/31
f 32/13/32 31/42/32 41/70/32 44/72/32
f 58/73/12 59/74/12 48/75/12 46/76/12
f 65/77/2 58/78/2 46/79/2 52/80/2
f 50/81/3 52/82/3 46/83/3 48/84/3
f 76/85/20 49/86/20 51/87/20 70/88/20
f 47/89/5 45/90/5 51/87/5 49/91/5
f 59/74/6 71/92/6 50/93/6 48/75/6
f 47/94/33 49/86/33 76/95/33 64/96/33
f 64/96/34 76/95/34 75/97/34 63/98/34
f 63/98/35 75/97/35 74/99/35 62/100/35
f 62/100/36 74/99/36 73/101/36 61/102/36
f 61/102/37 73/101/37 72/103/37 60/104/37
f 60/104/6 72/103/6 71/92/6 59/74/6
f 50/81/1 71/105/1 65/106/1 52/80/1
f 72/107/24 73/108/24 67/109/24 66/110/24
f 74/111/38 75/112/38 69/113/38 68/114/38
f 51/115/39 45/116/39 53/117/39 70/118/39
f 70/118/40 53/117/40 54/119/40 69/120/40
f 69/120/41 54/119/41 55/121/41 68/122/41
f 68/122/42 55/121/42 56/123/42 67/124/42
f 67/124/43 56/123/43 57/125/43 66/126/43
f 66/126/2 57/125/2 58/78/2 65/77/2
f 45/127/4 47/94/4 64/96/4 53/128/4
f 53/128/44 64/96/44 63/98/44 54/129/44
f 54/129/45 63/98/45 62/100/45 55/130/45
f 55/130/46 62/100/46 61/102/46 56/131/46
f 56/131/47 61/102/47 60/104/47 57/132/47
f 57/132/12 60/104/12 59/74/12 58/73/12
f 71/105/1 77/133/1 78/134/1 65/106/1
f 65/106/1 78/134/1 79/135/1 66/110/1
f 66/110/1 79/135/1 80/136/1 72/107/1
f 72/107/1 80/136/1 77/133/1 71/105/1
f 73/108/48 81/137/48 82/138/48 67/109/48
f 67/109/49 82/138/49 83/139/49 68/114/49
f 68/114/50 83/139/50 84/140/50 74/111/50
f 74/111/51 84/140/51 81/137/51 73/108/51
f 75/112/52 85/141/52 86/142/52 69/113/52
f 69/113/53 86/142/53 87/143/53 70/88/53
f 70/88/54 87/143/54 88/144/54 76/85/54
f 76/85/55 88/144/55 85/141/55 75/112/55
f 90/145/1 91/146/1 92/147/1 89/148/1
f 94/149/56 95/150/56 96/151/56 93/152/56
f 98/153/57 99/154/57 100/155/57 97/156/57
g DNA_Cube.001_1L
usemtl 1L
f 44/72/58 41/70/58 98/153/58 99/154/58
f 42/69/59 43/71/59 100/155/59 97/156/59
f 43/71/5 44/72/5 99/154/5 100/155/5
f 41/70/3 42/69/3 97/156/3 98/153/3
f 77/133/3 90/145/3 89/148/3 78/134/3
f 80/136/60 91/146/60 90/145/60 77/133/60
f 78/134/61 89/148/61 92/147/61 79/135/61
f 79/135/5 92/147/5 91/146/5 80/136/5
g DNA_Cube.001_1R
usemtl 1R
f 33/62/3 34/61/3 89/148/3 90/145/3
f 36/64/62 33/62/62 90/145/62 91/146/62
f 34/61/63 35/63/63 92/147/63 89/148/63
f 35/63/5 36/64/5 91/146/5 92/147/5
f 88/144/64 99/154/64 98/153/64 85/141/64
f 86/142/65 97/156/65 100/155/65 87/143/65
f 87/143/5 100/155/5 99/154/5 88/144/5
f 85/141/3 98/153/3 97/156/3 86/142/3
g DNA_Cube.001_2L
usemtl 2L
f 38/65/66 39/67/66 96/151/66 93/152/66
f 39/67/5 40/68/5 95/150/5 96/151/5
f 37/66/3 38/65/3 93/152/3 94/149/3
f 40/68/67 37/66/67 94/149/67 95/150/67
g DNA_Cube.001_2R
usemtl 2R
f 82/138/68 93/152/68 96/151/68 83/139/68
f 83/139/5 96/151/5 95/150/5 84/140/5
f 81/137/3 94/149/3 93/152/3 82/138/3
f 84/140/69 95/150/69 94/149/69 81/137/69
