# Blender v2.82 (sub 7) OBJ File: 'LD46.blend'
# www.blender.org
mtllib enemy.mtl
o Enemy_Cube.019
v -1.000000 -4.934793 0.769269
v -1.000000 -2.934793 0.769269
v -1.000000 -4.934793 -0.362122
v -1.000000 -2.934793 -0.362122
v -0.190258 -2.934793 -0.171864
v -0.809742 -2.934793 -0.171864
v -0.809742 -2.934793 0.337869
v -0.190258 -2.934793 0.337869
v -0.190258 -2.198437 -0.171864
v -0.190258 -2.198437 0.337869
v -0.809742 -2.198437 -0.171864
v -0.809742 -2.198437 0.337869
v -0.190258 -0.332457 -0.171864
v -0.190258 -0.332457 0.337869
v -0.809742 -0.332457 -0.171864
v -0.809742 -0.332457 0.337869
v -0.190258 -0.000612 -0.171864
v -0.190258 -0.000612 0.337869
v -0.809742 -0.000612 -0.171864
v -0.809742 -0.000612 0.337869
v -0.809742 -0.332457 -0.600538
v -0.190258 -0.332457 -0.600538
v -0.809742 -0.000612 -0.600538
v -0.190258 -0.000612 -0.600538
v -1.191339 -4.676434 0.269768
v -1.191339 -4.154183 0.269768
v -1.191339 -4.154183 -0.103764
v -1.191339 -4.676434 -0.103764
v -1.265176 -4.676434 0.269768
v -1.265176 -4.154183 0.269768
v -1.265176 -4.676434 -0.103764
v -1.265176 -4.154183 -0.103764
v -1.454973 -4.953791 0.468143
v -1.471815 -3.871996 0.449794
v -1.454973 -4.953791 -0.302138
v -1.471815 -3.871996 -0.283789
v -2.161980 -4.621692 0.468143
v -2.145138 -3.871996 0.449794
v -2.161980 -4.621692 -0.302138
v -2.145138 -3.871996 -0.283789
v -1.562935 -3.775448 0.350519
v -1.562935 -3.775448 -0.184515
v -2.054018 -3.775448 0.350519
v -2.054018 -3.775448 -0.184515
v -1.562935 -3.440348 0.350519
v -1.562935 -3.440348 -0.184515
v -2.054018 -3.440348 0.350519
v -2.054018 -3.440348 -0.184515
v -1.562935 -2.934212 0.350519
v -1.562935 -2.934212 -0.184515
v -2.054018 -2.934212 0.350519
v -2.054018 -2.934212 -0.184515
v -1.562935 -3.440348 -1.522005
v -2.054018 -3.440348 -1.522005
v -1.562935 -2.934212 -1.522005
v -2.054018 -2.934212 -1.522005
v 1.000000 -4.934793 0.769269
v 1.000000 -2.934793 0.769269
v 1.000000 -4.934793 -0.362122
v 1.000000 -2.934793 -0.362122
v 0.000000 -4.934793 -0.362122
v 0.000000 -2.934793 -0.362122
v 0.000000 -4.934793 0.769269
v 0.000000 -2.934793 0.769269
v 0.190258 -2.934793 -0.171864
v 0.809742 -2.934793 -0.171864
v 0.809742 -2.934793 0.337869
v 0.190258 -2.934793 0.337869
v 0.190258 -2.198437 -0.171864
v 0.190258 -2.198437 0.337869
v 0.809742 -2.198437 -0.171864
v 0.809742 -2.198437 0.337869
v 0.190258 -0.332457 -0.171864
v 0.190258 -0.332457 0.337869
v 0.809742 -0.332457 -0.171864
v 0.809742 -0.332457 0.337869
v 0.190258 -0.000612 -0.171864
v 0.190258 -0.000612 0.337869
v 0.809742 -0.000612 -0.171864
v 0.809742 -0.000612 0.337869
v 0.809742 -0.332457 -0.600538
v 0.190258 -0.332457 -0.600538
v 0.809742 -0.000612 -0.600538
v 0.190258 -0.000612 -0.600538
v 1.191339 -4.676434 0.269768
v 1.191339 -4.154183 0.269768
v 1.191339 -4.154183 -0.103764
v 1.191339 -4.676434 -0.103764
v 1.265176 -4.676434 0.269768
v 1.265176 -4.154183 0.269768
v 1.265176 -4.676434 -0.103764
v 1.265176 -4.154183 -0.103764
v 1.454973 -4.953791 0.468143
v 1.471815 -3.871996 0.449794
v 1.454973 -4.953791 -0.302138
v 1.471815 -3.871996 -0.283789
v 2.161980 -4.621692 0.468143
v 2.145138 -3.871996 0.449794
v 2.161980 -4.621692 -0.302138
v 2.145138 -3.871996 -0.283789
v 1.562935 -3.775448 0.350519
v 1.562935 -3.775448 -0.184515
v 2.054018 -3.775448 0.350519
v 2.054018 -3.775448 -0.184515
v 1.562935 -3.440348 0.350519
v 1.562935 -3.440348 -0.184515
v 2.054018 -3.440348 0.350519
v 2.054018 -3.440348 -0.184515
v 1.562935 -2.934212 0.350519
v 1.562935 -2.934212 -0.184515
v 2.054018 -2.934212 0.350519
v 2.054018 -2.934212 -0.184515
v 1.562935 -3.440348 -1.522005
v 2.054018 -3.440348 -1.522005
v 1.562935 -2.934212 -1.522005
v 2.054018 -2.934212 -1.522005
v -0.284853 -4.934793 0.113474
v 0.000000 -4.934793 0.002652
v 0.284853 -4.934793 0.113474
v 0.284853 -4.934793 0.293672
v 0.000000 -4.934793 0.404494
v -0.284853 -4.934793 0.293672
v 0.000000 -5.006105 -0.033691
v -0.336379 -5.006105 0.097177
v -0.336379 -5.006105 0.309969
v 0.336379 -5.006105 0.097177
v 0.336379 -5.006105 0.309969
v 0.000000 -5.006105 0.440838
v 0.000000 -5.006105 -0.033691
v -0.336379 -5.006105 0.097177
v -0.336379 -5.006105 0.309969
v 0.336379 -5.006105 0.097177
v 0.336379 -5.006105 0.309969
v 0.000000 -5.006105 0.440838
v -0.000000 -5.108154 -0.120064
v -0.458832 -5.108154 0.058445
v -0.458832 -5.108154 0.348701
v 0.458832 -5.108154 0.058445
v 0.458832 -5.108154 0.348701
v -0.000000 -5.108154 0.527210
v -0.000000 -5.819097 -0.120064
v -0.458832 -5.819097 0.058445
v -0.458832 -5.819097 0.348701
v 0.458832 -5.819097 0.058445
v 0.458832 -5.819097 0.348701
v -0.000000 -5.819097 0.527210
v 0.000000 -6.013900 0.003430
v -0.283751 -6.013900 0.113823
v -0.283751 -6.013900 0.293323
v 0.283751 -6.013900 0.113823
v 0.283751 -6.013900 0.293323
v 0.000000 -6.013900 0.403716
v -1.562935 -3.440348 -1.939371
v -2.054018 -3.440348 -1.939371
v -1.562935 -2.934212 -1.939371
v -2.054018 -2.934212 -1.939371
v -1.562935 -3.860825 -1.522005
v -2.054018 -3.860825 -1.522005
v -1.562935 -3.860825 -1.939371
v -2.054018 -3.860825 -1.939371
v -1.562935 -3.440348 -0.509498
v -2.054018 -3.440348 -0.509498
v -1.562935 -3.860825 -0.509498
v -2.054018 -3.860825 -0.509498
v -1.562935 -3.440348 -2.323350
v -2.054018 -3.440348 -2.323350
v -1.562935 -3.860825 -2.323350
v -2.054018 -3.860825 -2.323350
v -2.054018 -3.440348 -2.323350
v -1.562935 -3.440348 -2.323350
v -1.562935 -3.860825 -2.323350
v -2.054018 -3.860825 -2.323350
v -1.955680 -3.546431 -2.323350
v -1.661273 -3.546431 -2.323350
v -1.661273 -3.754742 -2.323350
v -1.955680 -3.754742 -2.323350
v -1.661273 -3.546431 -2.733623
v -1.955680 -3.546431 -2.733623
v -1.955680 -3.754742 -2.733623
v -1.661273 -3.754742 -2.733623
v -1.914610 -3.587501 -2.733623
v -1.702343 -3.587501 -2.733623
v -1.702343 -3.713672 -2.733623
v -1.914610 -3.713672 -2.733623
v -1.702343 -3.587501 -2.236897
v -1.914610 -3.587501 -2.236897
v -1.914610 -3.713672 -2.236897
v -1.702343 -3.713672 -2.236897
vt 0.407295 0.072552
vt 0.592705 0.072552
vt 0.592705 0.072552
vt 0.407295 0.072552
vt 0.375000 0.875000
vt 0.625000 0.875000
vt 0.625000 1.000000
vt 0.375000 1.000000
vt 0.851218 0.696572
vt 0.773782 0.696572
vt 0.773782 0.696572
vt 0.851218 0.696572
vt 0.375000 0.250000
vt 0.625000 0.250000
vt 0.625000 0.375000
vt 0.375000 0.375000
vt 0.750000 0.500000
vt 0.875000 0.500000
vt 0.851218 0.553428
vt 0.773782 0.553428
vt 0.875000 0.750000
vt 0.750000 0.750000
vt 0.773782 0.696572
vt 0.851218 0.696572
vt 0.851218 0.553428
vt 0.773782 0.553428
vt 0.851218 0.553428
vt 0.851218 0.696572
vt 0.851218 0.553428
vt 0.773782 0.553428
vt 0.773782 0.553428
vt 0.773782 0.696572
vt 0.851218 0.553428
vt 0.851218 0.553428
vt 0.773782 0.553428
vt 0.773782 0.553428
vt 0.375000 0.000000
vt 0.625000 0.000000
vt 0.592705 0.177448
vt 0.407295 0.177448
vt 0.592705 0.177448
vt 0.407295 0.177448
vt 0.407295 0.177448
vt 0.592705 0.177448
vt 0.592705 0.177448
vt 0.592705 0.177448
vt 0.592705 0.177448
vt 0.407295 0.072552
vt 0.592705 0.072552
vt 0.407295 0.072552
vt 0.592705 0.072552
vt 0.407295 0.177448
vt 0.592705 0.177448
vt 0.592705 0.177448
vt 0.592705 0.072552
vt 0.592705 0.072552
vt 0.592705 0.072552
vt 0.592705 0.072552
vt 0.592705 0.072552
vt 0.592705 0.072552
vt 0.592705 0.177448
vt 0.592705 0.177448
vt 0.592705 0.177448
vt 0.592705 0.177448
vt 0.592705 0.177448
vt 0.592705 0.177448
vt 0.592705 0.177448
vt 0.592705 0.177448
vt 0.407295 0.072552
vt 0.407295 0.072552
vt 0.592705 0.072552
vt 0.592705 0.072552
vt 0.375000 1.000000
vt 0.625000 1.000000
vt 0.851218 0.696572
vt 0.851218 0.696572
vt 0.773782 0.696572
vt 0.773782 0.696572
vt 0.375000 0.250000
vt 0.625000 0.250000
vt 0.773782 0.553428
vt 0.851218 0.553428
vt 0.875000 0.500000
vt 0.875000 0.750000
vt 0.851218 0.696572
vt 0.773782 0.696572
vt 0.773782 0.553428
vt 0.851218 0.553428
vt 0.851218 0.553428
vt 0.851218 0.553428
vt 0.851218 0.696572
vt 0.773782 0.553428
vt 0.773782 0.553428
vt 0.773782 0.696572
vt 0.851218 0.553428
vt 0.851218 0.553428
vt 0.773782 0.553428
vt 0.773782 0.553428
vt 0.375000 0.000000
vt 0.625000 0.000000
vt 0.592705 0.177448
vt 0.407295 0.177448
vt 0.592705 0.177448
vt 0.592705 0.177448
vt 0.407295 0.177448
vt 0.407295 0.177448
vt 0.592705 0.177448
vt 0.592705 0.177448
vt 0.592705 0.177448
vt 0.407295 0.072552
vt 0.592705 0.072552
vt 0.407295 0.072552
vt 0.407295 0.177448
vt 0.592705 0.072552
vt 0.592705 0.177448
vt 0.592705 0.177448
vt 0.592705 0.072552
vt 0.592705 0.072552
vt 0.592705 0.072552
vt 0.592705 0.072552
vt 0.592705 0.072552
vt 0.592705 0.072552
vt 0.592705 0.177448
vt 0.592705 0.177448
vt 0.592705 0.177448
vt 0.592705 0.177448
vt 0.592705 0.177448
vt 0.592705 0.177448
vt 0.195196 0.580603
vt 0.156992 0.580603
vt 0.156992 0.580603
vt 0.195196 0.580603
vt 0.125000 0.500000
vt 0.250000 0.500000
vt 0.156992 0.580603
vt 0.125000 0.500000
vt 0.125000 0.750000
vt 0.156992 0.669397
vt 0.250000 0.750000
vt 0.195196 0.669397
vt 0.125000 0.750000
vt 0.156992 0.669397
vt 0.156992 0.669397
vt 0.156992 0.580603
vt 0.156992 0.580603
vt 0.156992 0.669397
vt 0.195196 0.669397
vt 0.156992 0.669397
vt 0.195196 0.580603
vt 0.195196 0.580603
vt 0.156992 0.580603
vt 0.195196 0.669397
vt 0.156992 0.669397
vt 0.156992 0.580603
vt 0.156992 0.669397
vt 0.195196 0.669397
vt 0.195196 0.669397
vt 0.156992 0.669397
vt 0.156992 0.669397
vt 0.156992 0.580603
vt 0.156992 0.669397
vt 0.156992 0.669397
vt 0.195196 0.669397
vt 0.156992 0.580603
vt 0.195196 0.580603
vt 0.156992 0.580603
vt 0.156992 0.580603
vt 0.195196 0.580603
vt 0.156992 0.580603
vt 0.156992 0.669397
vt 0.592705 0.177448
vt 0.592705 0.177448
vt 0.592705 0.177448
vt 0.592705 0.177448
vt 0.592705 0.177448
vt 0.592705 0.177448
vt 0.592705 0.177448
vt 0.592705 0.177448
vt 0.592705 0.177448
vt 0.592705 0.177448
vt 0.592705 0.177448
vt 0.592705 0.177448
vt 0.592705 0.177448
vt 0.592705 0.177448
vt 0.592705 0.177448
vt 0.592705 0.177448
vt 0.592705 0.177448
vt 0.592705 0.177448
vt 0.592705 0.177448
vt 0.592705 0.177448
vt 0.592705 0.177448
vt 0.592705 0.177448
vt 0.592705 0.177448
vt 0.592705 0.177448
vt 0.592705 0.177448
vt 0.592705 0.177448
vt 0.592705 0.177448
vt 0.592705 0.177448
vt 0.592705 0.177448
vt 0.592705 0.177448
vt 0.592705 0.177448
vt 0.592705 0.177448
vt 0.592705 0.177448
vt 0.592705 0.177448
vn 0.0000 0.0000 1.0000
vn 0.0000 0.0000 -1.0000
vn 0.0000 1.0000 0.0000
vn 1.0000 0.0000 0.0000
vn -1.0000 0.0000 0.0000
vn 0.0000 -1.0000 0.0000
vn -0.9338 0.0000 0.3577
vn -0.9879 0.1550 0.0000
vn -0.8036 0.0000 -0.5952
vn -0.8036 -0.5952 0.0000
vn 0.6905 0.0155 -0.7232
vn 0.0000 0.7169 -0.6972
vn 0.8253 -0.5647 0.0000
vn 0.8068 0.5908 0.0000
vn 0.6905 0.0155 0.7232
vn -0.9997 0.0225 0.0000
vn 0.0048 0.0200 0.9998
vn 0.0048 0.0200 -0.9998
vn -0.4252 -0.9051 0.0000
vn -0.7273 0.6864 0.0000
vn 0.7273 0.6864 0.0000
vn 0.0000 0.7169 0.6972
vn 0.9338 0.0000 0.3577
vn 0.9879 0.1550 0.0000
vn 0.8036 0.0000 -0.5952
vn 0.8036 -0.5952 0.0000
vn -0.6905 0.0155 -0.7232
vn -0.8253 -0.5647 0.0000
vn -0.8068 0.5908 0.0000
vn -0.6905 0.0155 0.7232
vn 0.9997 0.0225 0.0000
vn -0.0048 0.0200 0.9998
vn -0.0048 0.0200 -0.9998
vn 0.4252 -0.9051 0.0000
vn 0.3275 0.4290 -0.8418
vn -0.3275 0.4290 -0.8418
vn -0.3275 0.4290 0.8418
vn 0.8106 0.5857 0.0000
vn -0.8106 0.5857 0.0000
vn 0.3275 0.4290 0.8418
vn -0.2847 0.6193 -0.7317
vn 0.3626 0.0000 0.9320
vn -0.2847 0.6193 0.7317
vn 0.6402 0.7682 0.0000
vn -0.6402 0.7682 0.0000
vn 0.2847 0.6193 0.7317
vn 0.2847 0.6193 -0.7317
vn -0.3122 -0.5087 0.8024
vn 0.3626 0.0000 -0.9320
vn -0.3626 0.0000 -0.9320
vn -0.3626 0.0000 0.9320
vn 0.7438 -0.6685 0.0000
vn -0.7438 -0.6685 0.0000
vn 0.3122 -0.5087 0.8024
vn 0.3122 -0.5087 -0.8024
vn -0.3122 -0.5087 -0.8024
g Enemy_Cube.019_EnemyMetal
usemtl EnemyMetal
s off
f 25/1/1 26/2/1 30/3/1 29/4/1
f 63/5/1 64/6/1 2/7/1 1/8/1
f 7/9/1 8/10/1 10/11/1 12/12/1
f 3/13/2 4/14/2 62/15/2 61/16/2
f 62/17/3 4/18/3 6/19/3 5/20/3
f 4/18/3 2/21/3 7/9/3 6/19/3
f 2/21/3 64/22/3 8/10/3 7/9/3
f 64/22/3 62/17/3 5/20/3 8/10/3
f 12/12/1 10/11/1 14/23/1 16/24/1
f 5/20/2 6/19/2 11/25/2 9/26/2
f 8/10/4 5/20/4 9/26/4 10/11/4
f 6/19/5 7/9/5 12/12/5 11/25/5
f 15/27/5 16/24/5 20/28/5 19/29/5
f 9/26/2 11/25/2 15/27/2 13/30/2
f 11/25/5 12/12/5 16/24/5 15/27/5
f 10/11/4 9/26/4 13/30/4 14/23/4
f 17/31/3 19/29/3 20/28/3 18/32/3
f 14/23/4 13/30/4 17/31/4 18/32/4
f 16/24/1 14/23/1 18/32/1 20/28/1
f 15/27/5 19/29/5 23/33/5 21/34/5
f 22/35/2 21/34/2 23/33/2 24/36/2
f 19/29/3 17/31/3 24/36/3 23/33/3
f 17/31/4 13/30/4 22/35/4 24/36/4
f 13/30/6 15/27/6 21/34/6 22/35/6
f 1/37/7 2/38/7 26/2/7 25/1/7
f 2/38/8 4/14/8 27/39/8 26/2/8
f 4/14/9 3/13/9 28/40/9 27/39/9
f 3/13/10 1/37/10 25/1/10 28/40/10
f 32/41/11 31/42/11 35/43/11 36/44/11
f 27/39/2 28/40/2 31/42/2 32/41/2
f 28/40/6 25/1/6 29/4/6 31/42/6
f 26/2/3 27/39/3 32/41/3 30/3/3
f 36/44/12 40/45/12 44/46/12 42/47/12
f 31/42/13 29/4/13 33/48/13 35/43/13
f 30/3/14 32/41/14 36/44/14 34/49/14
f 29/4/15 30/3/15 34/49/15 33/48/15
f 37/50/16 38/51/16 40/45/16 39/52/16
f 33/48/17 34/49/17 38/51/17 37/50/17
f 36/44/18 35/43/18 39/52/18 40/45/18
f 35/43/19 33/48/19 37/50/19 39/52/19
f 42/47/2 44/46/2 48/53/2 46/54/2
f 40/45/20 38/51/20 43/55/20 44/46/20
f 34/49/21 36/44/21 42/47/21 41/56/21
f 38/51/22 34/49/22 41/56/22 43/55/22
f 47/57/1 45/58/1 49/59/1 51/60/1
f 41/56/4 42/47/4 46/54/4 45/58/4
f 43/55/1 41/56/1 45/58/1 47/57/1
f 44/46/5 43/55/5 47/57/5 48/53/5
f 49/59/3 50/61/3 52/62/3 51/60/3
f 48/53/5 47/57/5 51/60/5 52/62/5
f 48/53/5 52/62/5 56/63/5 54/64/5
f 45/58/4 46/54/4 50/61/4 49/59/4
f 56/63/3 55/65/3 155/66/3 156/67/3
f 52/62/3 50/61/3 55/65/3 56/63/3
f 50/61/4 46/54/4 53/68/4 55/65/4
f 46/54/6 48/53/6 54/64/6 53/68/6
f 85/69/1 89/70/1 90/71/1 86/72/1
f 63/5/1 57/73/1 58/74/1 64/6/1
f 67/75/1 72/76/1 70/77/1 68/78/1
f 59/79/2 61/16/2 62/15/2 60/80/2
f 62/17/3 65/81/3 66/82/3 60/83/3
f 60/83/3 66/82/3 67/75/3 58/84/3
f 58/84/3 67/75/3 68/78/3 64/22/3
f 64/22/3 68/78/3 65/81/3 62/17/3
f 72/76/1 76/85/1 74/86/1 70/77/1
f 65/81/2 69/87/2 71/88/2 66/82/2
f 68/78/5 70/77/5 69/87/5 65/81/5
f 66/82/4 71/88/4 72/76/4 67/75/4
f 75/89/4 79/90/4 80/91/4 76/85/4
f 69/87/2 73/92/2 75/89/2 71/88/2
f 71/88/4 75/89/4 76/85/4 72/76/4
f 70/77/5 74/86/5 73/92/5 69/87/5
f 77/93/3 78/94/3 80/91/3 79/90/3
f 74/86/5 78/94/5 77/93/5 73/92/5
f 76/85/1 80/91/1 78/94/1 74/86/1
f 75/89/4 81/95/4 83/96/4 79/90/4
f 82/97/2 84/98/2 83/96/2 81/95/2
f 79/90/3 83/96/3 84/98/3 77/93/3
f 77/93/5 84/98/5 82/97/5 73/92/5
f 73/92/6 82/97/6 81/95/6 75/89/6
f 57/99/23 85/69/23 86/72/23 58/100/23
f 58/100/24 86/72/24 87/101/24 60/80/24
f 60/80/25 87/101/25 88/102/25 59/79/25
f 59/79/26 88/102/26 85/69/26 57/99/26
f 92/103/27 96/104/27 95/105/27 91/106/27
f 87/101/2 92/103/2 91/106/2 88/102/2
f 88/102/6 91/106/6 89/70/6 85/69/6
f 86/72/3 90/71/3 92/103/3 87/101/3
f 96/104/12 102/107/12 104/108/12 100/109/12
f 91/106/28 95/105/28 93/110/28 89/70/28
f 90/71/29 94/111/29 96/104/29 92/103/29
f 89/70/30 93/110/30 94/111/30 90/71/30
f 97/112/31 99/113/31 100/109/31 98/114/31
f 93/110/32 97/112/32 98/114/32 94/111/32
f 96/104/33 100/109/33 99/113/33 95/105/33
f 95/105/34 99/113/34 97/112/34 93/110/34
f 102/107/2 106/115/2 108/116/2 104/108/2
f 100/109/21 104/108/21 103/117/21 98/114/21
f 94/111/20 101/118/20 102/107/20 96/104/20
f 98/114/22 103/117/22 101/118/22 94/111/22
f 107/119/1 111/120/1 109/121/1 105/122/1
f 101/118/5 105/122/5 106/115/5 102/107/5
f 103/117/1 107/119/1 105/122/1 101/118/1
f 104/108/4 108/116/4 107/119/4 103/117/4
f 109/121/3 111/120/3 112/123/3 110/124/3
f 108/116/4 112/123/4 111/120/4 107/119/4
f 108/116/4 114/125/4 116/126/4 112/123/4
f 105/122/5 109/121/5 110/124/5 106/115/5
f 113/127/2 115/128/2 116/126/2 114/125/2
f 112/123/3 116/126/3 115/128/3 110/124/3
f 110/124/5 115/128/5 113/127/5 106/115/5
f 106/115/6 113/127/6 114/125/6 108/116/6
f 118/129/35 119/130/35 126/131/35 123/132/35
f 3/133/6 61/134/6 118/129/6 117/135/6
f 61/134/6 59/136/6 119/130/6 118/129/6
f 59/136/6 57/137/6 120/138/6 119/130/6
f 57/137/6 63/139/6 121/140/6 120/138/6
f 63/139/6 1/141/6 122/142/6 121/140/6
f 1/141/6 3/133/6 117/135/6 122/142/6
f 125/143/1 124/144/1 130/145/1 131/146/1
f 117/135/36 118/129/36 123/132/36 124/144/36
f 121/140/37 122/142/37 125/143/37 128/147/37
f 119/130/38 120/138/38 127/148/38 126/131/38
f 122/142/39 117/135/39 124/144/39 125/143/39
f 120/138/40 121/140/40 128/147/40 127/148/40
f 130/145/41 129/149/41 135/150/41 136/151/41
f 127/148/1 128/147/1 134/152/1 133/153/1
f 123/132/1 126/131/1 132/154/1 129/149/1
f 124/144/1 123/132/1 129/149/1 130/145/1
f 128/147/1 125/143/1 131/146/1 134/152/1
f 126/131/1 127/148/1 133/153/1 132/154/1
f 139/155/42 140/156/42 146/157/42 145/158/42
f 134/152/43 131/146/43 137/159/43 140/156/43
f 132/154/44 133/153/44 139/155/44 138/160/44
f 131/146/45 130/145/45 136/151/45 137/159/45
f 133/153/46 134/152/46 140/156/46 139/155/46
f 129/149/47 132/154/47 138/160/47 135/150/47
f 146/157/48 143/161/48 149/162/48 152/163/48
f 135/150/49 138/160/49 144/164/49 141/165/49
f 136/151/50 135/150/50 141/165/50 142/166/50
f 140/156/51 137/159/51 143/161/51 146/157/51
f 138/160/4 139/155/4 145/158/4 144/164/4
f 137/159/5 136/151/5 142/166/5 143/161/5
f 148/167/6 147/168/6 150/169/6 151/170/6 152/163/6 149/162/6
f 144/164/52 145/158/52 151/170/52 150/169/52
f 143/161/53 142/166/53 148/167/53 149/162/53
f 145/158/54 146/157/54 152/163/54 151/170/54
f 141/165/55 144/164/55 150/169/55 147/168/55
f 142/166/56 141/165/56 147/168/56 148/167/56
f 153/171/2 154/172/2 156/67/2 155/66/2
f 54/64/5 56/63/5 156/67/5 154/172/5
f 55/65/4 53/68/4 153/171/4 155/66/4
f 53/68/3 54/64/3 162/173/3 161/174/3
f 166/175/1 165/176/1 170/177/1 169/178/1
f 165/176/1 167/179/1 171/180/1 170/177/1
f 167/179/1 168/181/1 172/182/1 171/180/1
f 186/183/2 185/184/2 188/185/2 187/186/2
g Enemy_Cube.019_Metal
usemtl Metal
f 153/171/4 53/68/4 157/187/4 159/188/4
f 157/187/6 158/189/6 160/190/6 159/188/6
f 54/64/5 158/189/5 164/191/5 162/173/5
f 54/64/5 154/172/5 160/190/5 158/189/5
f 160/190/5 154/172/5 166/175/5 168/181/5
f 161/174/1 162/173/1 164/191/1 163/192/1
f 157/187/4 53/68/4 161/174/4 163/192/4
f 158/189/6 157/187/6 163/192/6 164/191/6
f 173/193/3 174/194/3 177/195/3 178/196/3
f 153/171/4 159/188/4 167/179/4 165/176/4
f 154/172/3 153/171/3 165/176/3 166/175/3
f 159/188/6 160/190/6 168/181/6 167/179/6
f 168/181/1 166/175/1 169/178/1 172/182/1
f 169/178/2 170/177/2 174/194/2 173/193/2
f 170/177/2 171/180/2 175/197/2 174/194/2
f 171/180/2 172/182/2 176/198/2 175/197/2
f 172/182/2 169/178/2 173/193/2 176/198/2
f 182/199/5 183/200/5 188/185/5 185/184/5
f 175/197/6 176/198/6 179/201/6 180/202/6
f 176/198/5 173/193/5 178/196/5 179/201/5
f 174/194/4 175/197/4 180/202/4 177/195/4
f 178/196/2 177/195/2 182/199/2 181/203/2
f 177/195/2 180/202/2 183/200/2 182/199/2
f 180/202/2 179/201/2 184/204/2 183/200/2
f 179/201/2 178/196/2 181/203/2 184/204/2
f 181/203/6 182/199/6 185/184/6 186/183/6
f 183/200/3 184/204/3 187/186/3 188/185/3
f 184/204/4 181/203/4 186/183/4 187/186/4
