# Blender v2.82 (sub 7) OBJ File: 'LD46.blend'
# www.blender.org
mtllib player.mtl
o Player_Cube.018
v -1.000000 -4.934793 0.769269
v -1.000000 -2.934793 0.769269
v -1.000000 -4.934793 -0.362122
v -1.000000 -2.934793 -0.362122
v -0.190258 -2.934793 -0.171864
v -0.809742 -2.934793 -0.171864
v -0.809742 -2.934793 0.337869
v -0.190258 -2.934793 0.337869
v -0.190258 -2.198437 -0.171864
v -0.190258 -2.198437 0.337869
v -0.809742 -2.198437 -0.171864
v -0.809742 -2.198437 0.337869
v -0.190258 -0.332457 -0.171864
v -0.190258 -0.332457 0.337869
v -0.809742 -0.332457 -0.171864
v -0.809742 -0.332457 0.337869
v -0.190258 -0.000612 -0.171864
v -0.190258 -0.000612 0.337869
v -0.809742 -0.000612 -0.171864
v -0.809742 -0.000612 0.337869
v -0.809742 -0.332457 -0.600538
v -0.190258 -0.332457 -0.600538
v -0.809742 -0.000612 -0.600538
v -0.190258 -0.000612 -0.600538
v -1.191339 -4.676434 0.269768
v -1.191339 -4.154183 0.269768
v -1.191339 -4.154183 -0.103764
v -1.191339 -4.676434 -0.103764
v -1.265176 -4.676434 0.269768
v -1.265176 -4.154183 0.269768
v -1.265176 -4.676434 -0.103764
v -1.265176 -4.154183 -0.103764
v -1.454973 -4.953791 0.468143
v -1.471815 -3.871996 0.449794
v -1.454973 -4.953791 -0.302138
v -1.471815 -3.871996 -0.283789
v -2.161980 -4.621692 0.468143
v -2.145138 -3.871996 0.449794
v -2.161980 -4.621692 -0.302138
v -2.145138 -3.871996 -0.283789
v -1.562935 -3.775448 0.350519
v -1.562935 -3.775448 -0.184515
v -2.054018 -3.775448 0.350519
v -2.054018 -3.775448 -0.184515
v -1.562935 -3.440348 0.350519
v -1.562935 -3.440348 -0.184515
v -2.054018 -3.440348 0.350519
v -2.054018 -3.440348 -0.184515
v -1.562935 -2.934212 0.350519
v -1.562935 -2.934212 -0.184515
v -2.054018 -2.934212 0.350519
v -2.054018 -2.934212 -0.184515
v -1.562935 -3.440348 -1.522005
v -2.054018 -3.440348 -1.522005
v -1.562935 -2.934212 -1.522005
v -2.054018 -2.934212 -1.522005
v 1.000000 -4.934793 0.769269
v 1.000000 -2.934793 0.769269
v 1.000000 -4.934793 -0.362122
v 1.000000 -2.934793 -0.362122
v 0.000000 -4.934793 -0.362122
v 0.000000 -2.934793 -0.362122
v 0.000000 -4.934793 0.769269
v 0.000000 -2.934793 0.769269
v 0.190258 -2.934793 -0.171864
v 0.809742 -2.934793 -0.171864
v 0.809742 -2.934793 0.337869
v 0.190258 -2.934793 0.337869
v 0.190258 -2.198437 -0.171864
v 0.190258 -2.198437 0.337869
v 0.809742 -2.198437 -0.171864
v 0.809742 -2.198437 0.337869
v 0.190258 -0.332457 -0.171864
v 0.190258 -0.332457 0.337869
v 0.809742 -0.332457 -0.171864
v 0.809742 -0.332457 0.337869
v 0.190258 -0.000612 -0.171864
v 0.190258 -0.000612 0.337869
v 0.809742 -0.000612 -0.171864
v 0.809742 -0.000612 0.337869
v 0.809742 -0.332457 -0.600538
v 0.190258 -0.332457 -0.600538
v 0.809742 -0.000612 -0.600538
v 0.190258 -0.000612 -0.600538
v 1.191339 -4.676434 0.269768
v 1.191339 -4.154183 0.269768
v 1.191339 -4.154183 -0.103764
v 1.191339 -4.676434 -0.103764
v 1.265176 -4.676434 0.269768
v 1.265176 -4.154183 0.269768
v 1.265176 -4.676434 -0.103764
v 1.265176 -4.154183 -0.103764
v 1.454973 -4.953791 0.468143
v 1.471815 -3.871996 0.449794
v 1.454973 -4.953791 -0.302138
v 1.471815 -3.871996 -0.283789
v 2.161980 -4.621692 0.468143
v 2.145138 -3.871996 0.449794
v 2.161980 -4.621692 -0.302138
v 2.145138 -3.871996 -0.283789
v 1.562935 -3.775448 0.350519
v 1.562935 -3.775448 -0.184515
v 2.054018 -3.775448 0.350519
v 2.054018 -3.775448 -0.184515
v 1.562935 -3.440348 0.350519
v 1.562935 -3.440348 -0.184515
v 2.054018 -3.440348 0.350519
v 2.054018 -3.440348 -0.184515
v 1.562935 -2.934212 0.350519
v 1.562935 -2.934212 -0.184515
v 2.054018 -2.934212 0.350519
v 2.054018 -2.934212 -0.184515
v 1.562935 -3.440348 -1.522005
v 2.054018 -3.440348 -1.522005
v 1.562935 -2.934212 -1.522005
v 2.054018 -2.934212 -1.522005
v -0.284853 -4.934793 0.113474
v 0.000000 -4.934793 0.002652
v 0.284853 -4.934793 0.113474
v 0.284853 -4.934793 0.293672
v 0.000000 -4.934793 0.404494
v -0.284853 -4.934793 0.293672
v 0.000000 -5.006105 -0.033691
v -0.336379 -5.006105 0.097177
v -0.336379 -5.006105 0.309969
v 0.336379 -5.006105 0.097177
v 0.336379 -5.006105 0.309969
v 0.000000 -5.006105 0.440838
v 0.000000 -5.006105 -0.033691
v -0.336379 -5.006105 0.097177
v -0.336379 -5.006105 0.309969
v 0.336379 -5.006105 0.097177
v 0.336379 -5.006105 0.309969
v 0.000000 -5.006105 0.440838
v -0.000000 -5.108154 -0.120064
v -0.458832 -5.108154 0.058445
v -0.458832 -5.108154 0.348701
v 0.458832 -5.108154 0.058445
v 0.458832 -5.108154 0.348701
v -0.000000 -5.108154 0.527210
v -0.000000 -5.819097 -0.120064
v -0.458832 -5.819097 0.058445
v -0.458832 -5.819097 0.348701
v 0.458832 -5.819097 0.058445
v 0.458832 -5.819097 0.348701
v -0.000000 -5.819097 0.527210
v 0.000000 -6.013900 0.003430
v -0.283751 -6.013900 0.113823
v -0.283751 -6.013900 0.293323
v 0.283751 -6.013900 0.113823
v 0.283751 -6.013900 0.293323
v 0.000000 -6.013900 0.403716
v -1.562935 -3.440348 -1.961104
v -2.054018 -3.440348 -1.961104
v -1.562935 -2.934212 -1.961104
v -2.054018 -2.934212 -1.961104
v -1.562935 -4.034925 -1.522005
v -2.054018 -4.034925 -1.522005
v -1.562935 -4.034925 -1.961104
v -2.054018 -4.034925 -1.961104
v -1.562935 -3.440348 -0.988836
v -2.054018 -3.440348 -0.988836
v -1.562935 -3.850195 -0.988836
v -2.054018 -3.850195 -0.988836
v -1.562935 -3.440348 -2.106976
v -2.054018 -3.440348 -2.106976
v -1.562935 -4.034925 -2.106976
v -2.054018 -4.034925 -2.106976
v -1.562935 -3.440348 -2.895832
v -2.054018 -3.440348 -2.895832
v -1.562935 -4.034925 -2.895832
v -2.054018 -4.034925 -2.895832
v -2.054018 -3.440348 -2.895832
v -1.562935 -3.440348 -2.895832
v -1.562935 -4.034925 -2.895832
v -2.054018 -4.034925 -2.895832
v -1.975730 -3.518636 -2.895832
v -1.641223 -3.518636 -2.895832
v -1.641223 -3.956637 -2.895832
v -1.975730 -3.956637 -2.895832
v -1.641223 -3.518636 -3.095741
v -1.975730 -3.518636 -3.095741
v -1.975730 -3.956637 -3.095741
v -1.641223 -3.956637 -3.095741
v -1.910327 -3.584040 -3.095741
v -1.706626 -3.584040 -3.095741
v -1.706626 -3.891234 -3.095741
v -1.910327 -3.891234 -3.095741
v -1.706626 -3.584040 -2.612831
v -1.910327 -3.584040 -2.612831
v -1.910327 -3.891234 -2.612831
v -1.706626 -3.891234 -2.612831
v -0.257465 -4.677328 0.769269
v -0.257465 -4.160663 0.769269
v -0.742535 -4.160663 0.769269
v -0.742535 -4.677328 0.769269
v 0.257215 -4.677578 0.769269
v 0.742785 -4.677578 0.769269
v 0.742785 -4.238954 0.769269
v 0.257215 -4.238954 0.769269
v 0.742785 -4.620224 1.398249
v 0.257215 -4.620224 1.398249
v 0.257215 -4.296307 1.694000
v 0.742785 -4.296307 1.694000
v 0.593093 -4.998814 1.754920
v 0.228794 -5.110799 2.055792
v 0.406908 -4.856899 2.365955
v 0.771206 -4.744914 2.065083
v 1.679357 -5.863172 1.926113
v 1.632705 -6.050465 2.086317
v 1.652861 -5.906684 2.260279
v 1.699512 -5.719391 2.100075
v 1.905678 -5.909337 1.938047
v 1.859026 -6.096630 2.098251
v 1.879182 -5.952849 2.272213
v 1.925833 -5.765556 2.112010
v 2.224432 -6.105810 1.375797
v 2.203829 -6.188528 1.446550
v 2.212730 -6.125027 1.523381
v 2.233334 -6.042309 1.452627
vt 0.407295 0.072552
vt 0.592705 0.072552
vt 0.592705 0.072552
vt 0.407295 0.072552
vt 0.407183 0.907183
vt 0.592817 0.907183
vt 0.592817 0.967817
vt 0.407183 0.967817
vt 0.851218 0.696572
vt 0.773782 0.696572
vt 0.773782 0.696572
vt 0.851218 0.696572
vt 0.375000 0.250000
vt 0.625000 0.250000
vt 0.625000 0.375000
vt 0.375000 0.375000
vt 0.750000 0.500000
vt 0.875000 0.500000
vt 0.851218 0.553428
vt 0.773782 0.553428
vt 0.875000 0.750000
vt 0.750000 0.750000
vt 0.773782 0.696572
vt 0.851218 0.696572
vt 0.851218 0.553428
vt 0.773782 0.553428
vt 0.851218 0.553428
vt 0.851218 0.696572
vt 0.851218 0.553428
vt 0.773782 0.553428
vt 0.773782 0.553428
vt 0.773782 0.696572
vt 0.851218 0.553428
vt 0.851218 0.553428
vt 0.773782 0.553428
vt 0.773782 0.553428
vt 0.375000 0.000000
vt 0.625000 0.000000
vt 0.592705 0.177448
vt 0.407295 0.177448
vt 0.592705 0.177448
vt 0.407295 0.177448
vt 0.407295 0.177448
vt 0.592705 0.177448
vt 0.592705 0.177448
vt 0.592705 0.177448
vt 0.592705 0.177448
vt 0.407295 0.072552
vt 0.592705 0.072552
vt 0.407295 0.072552
vt 0.592705 0.072552
vt 0.407295 0.177448
vt 0.592705 0.177448
vt 0.592705 0.177448
vt 0.592705 0.072552
vt 0.592705 0.072552
vt 0.592705 0.072552
vt 0.592705 0.072552
vt 0.592705 0.072552
vt 0.592705 0.072552
vt 0.592705 0.177448
vt 0.592705 0.177448
vt 0.592705 0.177448
vt 0.592705 0.177448
vt 0.592705 0.177448
vt 0.592705 0.177448
vt 0.592705 0.177448
vt 0.592705 0.177448
vt 0.407295 0.072552
vt 0.407295 0.072552
vt 0.592705 0.072552
vt 0.592705 0.072552
vt 0.592848 0.967848
vt 0.592848 0.907152
vt 0.592848 0.907152
vt 0.592848 0.967848
vt 0.851218 0.696572
vt 0.851218 0.696572
vt 0.773782 0.696572
vt 0.773782 0.696572
vt 0.375000 0.250000
vt 0.625000 0.250000
vt 0.773782 0.553428
vt 0.851218 0.553428
vt 0.875000 0.500000
vt 0.875000 0.750000
vt 0.851218 0.696572
vt 0.773782 0.696572
vt 0.773782 0.553428
vt 0.851218 0.553428
vt 0.851218 0.553428
vt 0.851218 0.553428
vt 0.851218 0.696572
vt 0.773782 0.553428
vt 0.773782 0.553428
vt 0.773782 0.696572
vt 0.851218 0.553428
vt 0.851218 0.553428
vt 0.773782 0.553428
vt 0.773782 0.553428
vt 0.375000 0.000000
vt 0.625000 0.000000
vt 0.592705 0.177448
vt 0.407295 0.177448
vt 0.592705 0.177448
vt 0.592705 0.177448
vt 0.407295 0.177448
vt 0.407295 0.177448
vt 0.592705 0.177448
vt 0.592705 0.177448
vt 0.592705 0.177448
vt 0.407295 0.072552
vt 0.592705 0.072552
vt 0.407295 0.072552
vt 0.407295 0.177448
vt 0.592705 0.072552
vt 0.592705 0.177448
vt 0.592705 0.177448
vt 0.592705 0.072552
vt 0.592705 0.072552
vt 0.592705 0.072552
vt 0.592705 0.072552
vt 0.592705 0.072552
vt 0.592705 0.072552
vt 0.592705 0.177448
vt 0.592705 0.177448
vt 0.592705 0.177448
vt 0.592705 0.177448
vt 0.592705 0.177448
vt 0.592705 0.177448
vt 0.195196 0.580603
vt 0.156992 0.580603
vt 0.156992 0.580603
vt 0.195196 0.580603
vt 0.125000 0.500000
vt 0.250000 0.500000
vt 0.156992 0.580603
vt 0.125000 0.500000
vt 0.125000 0.750000
vt 0.156992 0.669397
vt 0.250000 0.750000
vt 0.195196 0.669397
vt 0.125000 0.750000
vt 0.156992 0.669397
vt 0.156992 0.669397
vt 0.156992 0.580603
vt 0.156992 0.580603
vt 0.156992 0.669397
vt 0.195196 0.669397
vt 0.156992 0.669397
vt 0.195196 0.580603
vt 0.195196 0.580603
vt 0.156992 0.580603
vt 0.195196 0.669397
vt 0.156992 0.669397
vt 0.156992 0.580603
vt 0.156992 0.669397
vt 0.195196 0.669397
vt 0.195196 0.669397
vt 0.156992 0.669397
vt 0.156992 0.669397
vt 0.156992 0.580603
vt 0.156992 0.669397
vt 0.156992 0.669397
vt 0.195196 0.669397
vt 0.156992 0.580603
vt 0.195196 0.580603
vt 0.156992 0.580603
vt 0.156992 0.580603
vt 0.195196 0.580603
vt 0.156992 0.580603
vt 0.156992 0.669397
vt 0.592705 0.177448
vt 0.592705 0.177448
vt 0.592705 0.177448
vt 0.592705 0.177448
vt 0.375000 0.875000
vt 0.625000 0.875000
vt 0.625000 1.000000
vt 0.375000 1.000000
vt 0.375000 1.000000
vt 0.407152 0.967848
vt 0.407152 0.907152
vt 0.625000 1.000000
vt 0.407152 0.967848
vt 0.592848 0.967848
vt 0.407152 0.967848
vt 0.407152 0.907152
vt 0.592848 0.967848
vt 0.407152 0.967848
vt 0.407152 0.907152
vt 0.592848 0.907152
vt 0.592848 0.907152
vt 0.592848 0.907152
vt 0.592848 0.967848
vt 0.407152 0.907152
vt 0.407152 0.967848
vt 0.592848 0.967848
vt 0.407152 0.967848
vt 0.407152 0.907152
vt 0.407152 0.907152
vt 0.592848 0.907152
vt 0.592705 0.177448
vt 0.592705 0.177448
vt 0.592705 0.177448
vt 0.592705 0.177448
vt 0.592705 0.177448
vt 0.592705 0.177448
vt 0.592705 0.177448
vt 0.592705 0.177448
vt 0.592705 0.177448
vt 0.592705 0.177448
vt 0.592705 0.177448
vt 0.592705 0.177448
vt 0.592705 0.177448
vt 0.592705 0.177448
vt 0.592705 0.177448
vt 0.592705 0.177448
vt 0.592705 0.177448
vt 0.592705 0.177448
vt 0.592705 0.177448
vt 0.592705 0.177448
vt 0.592705 0.177448
vt 0.592705 0.177448
vt 0.592705 0.177448
vt 0.592705 0.177448
vt 0.592705 0.177448
vt 0.592705 0.177448
vt 0.592705 0.177448
vt 0.592705 0.177448
vt 0.592705 0.177448
vt 0.592705 0.177448
vt 0.592705 0.177448
vt 0.592705 0.177448
vt 0.592705 0.177448
vt 0.592705 0.177448
vn 0.0000 0.0000 1.0000
vn 0.0000 0.0000 -1.0000
vn 0.0000 1.0000 0.0000
vn 1.0000 0.0000 0.0000
vn -1.0000 0.0000 0.0000
vn 0.0000 -1.0000 0.0000
vn -0.9338 0.0000 0.3577
vn -0.9879 0.1550 0.0000
vn -0.8036 0.0000 -0.5952
vn -0.8036 -0.5952 0.0000
vn 0.6905 0.0155 -0.7232
vn 0.0000 0.7169 -0.6972
vn 0.8253 -0.5647 0.0000
vn 0.8068 0.5908 0.0000
vn 0.6905 0.0155 0.7232
vn -0.9997 0.0225 0.0000
vn 0.0048 0.0200 0.9998
vn 0.0048 0.0200 -0.9998
vn -0.4252 -0.9051 0.0000
vn -0.7273 0.6864 0.0000
vn 0.7273 0.6864 0.0000
vn 0.0000 0.7169 0.6972
vn 0.0000 0.9981 0.0619
vn 0.9338 0.0000 0.3577
vn 0.9879 0.1550 0.0000
vn 0.8036 0.0000 -0.5952
vn 0.8036 -0.5952 0.0000
vn -0.6905 0.0155 -0.7232
vn -0.8253 -0.5647 0.0000
vn -0.8068 0.5908 0.0000
vn -0.6905 0.0155 0.7232
vn 0.9997 0.0225 0.0000
vn -0.0048 0.0200 0.9998
vn -0.0048 0.0200 -0.9998
vn 0.4252 -0.9051 0.0000
vn 0.3275 0.4290 -0.8418
vn -0.3275 0.4290 -0.8418
vn -0.3275 0.4290 0.8418
vn 0.8106 0.5857 0.0000
vn -0.8106 0.5857 0.0000
vn 0.3275 0.4290 0.8418
vn -0.2847 0.6193 -0.7317
vn 0.3626 0.0000 0.9320
vn -0.2847 0.6193 0.7317
vn 0.6402 0.7682 0.0000
vn -0.6402 0.7682 0.0000
vn 0.2847 0.6193 0.7317
vn 0.2847 0.6193 -0.7317
vn -0.3122 -0.5087 0.8024
vn 0.3626 0.0000 -0.9320
vn -0.3626 0.0000 -0.9320
vn -0.3626 0.0000 0.9320
vn 0.7438 -0.6685 0.0000
vn -0.7438 -0.6685 0.0000
vn 0.3122 -0.5087 0.8024
vn 0.3122 -0.5087 -0.8024
vn -0.3122 -0.5087 -0.8024
vn 0.9733 -0.2145 -0.0816
vn 0.0000 -0.9959 0.0908
vn 0.5454 0.5242 -0.6540
vn -0.1355 -0.7404 -0.6583
vn 0.1438 0.7234 0.6753
vn -0.9773 0.1136 0.1790
vn 0.0890 0.6345 0.7677
vn -0.3711 -0.5922 -0.7152
vn 0.4739 0.4833 0.7361
vn -0.4327 -0.6017 0.6714
vn -0.4887 0.6994 -0.5215
vn -0.1860 -0.7467 0.6387
vn 0.1860 0.7467 -0.6387
vn -0.0890 -0.6345 -0.7677
vn 0.9785 -0.1996 0.0516
vn -0.8817 -0.1601 -0.4439
vn 0.9172 0.1011 0.3853
vn 0.6561 -0.6173 0.4342
vn 0.0000 -0.9449 0.3274
g Player_Cube.018_LarvaTentacle
usemtl LarvaTentacle
s off
f 25/1/1 26/2/1 30/3/1 29/4/1
f 193/5/1 194/6/1 195/7/1 196/8/1
f 7/9/1 8/10/1 10/11/1 12/12/1
f 3/13/2 4/14/2 62/15/2 61/16/2
f 62/17/3 4/18/3 6/19/3 5/20/3
f 4/18/3 2/21/3 7/9/3 6/19/3
f 2/21/3 64/22/3 8/10/3 7/9/3
f 64/22/3 62/17/3 5/20/3 8/10/3
f 12/12/1 10/11/1 14/23/1 16/24/1
f 5/20/2 6/19/2 11/25/2 9/26/2
f 8/10/4 5/20/4 9/26/4 10/11/4
f 6/19/5 7/9/5 12/12/5 11/25/5
f 15/27/5 16/24/5 20/28/5 19/29/5
f 9/26/2 11/25/2 15/27/2 13/30/2
f 11/25/5 12/12/5 16/24/5 15/27/5
f 10/11/4 9/26/4 13/30/4 14/23/4
f 17/31/3 19/29/3 20/28/3 18/32/3
f 14/23/4 13/30/4 17/31/4 18/32/4
f 16/24/1 14/23/1 18/32/1 20/28/1
f 15/27/5 19/29/5 23/33/5 21/34/5
f 22/35/2 21/34/2 23/33/2 24/36/2
f 19/29/3 17/31/3 24/36/3 23/33/3
f 17/31/4 13/30/4 22/35/4 24/36/4
f 13/30/6 15/27/6 21/34/6 22/35/6
f 1/37/7 2/38/7 26/2/7 25/1/7
f 2/38/8 4/14/8 27/39/8 26/2/8
f 4/14/9 3/13/9 28/40/9 27/39/9
f 3/13/10 1/37/10 25/1/10 28/40/10
f 32/41/11 31/42/11 35/43/11 36/44/11
f 27/39/2 28/40/2 31/42/2 32/41/2
f 28/40/6 25/1/6 29/4/6 31/42/6
f 26/2/3 27/39/3 32/41/3 30/3/3
f 36/44/12 40/45/12 44/46/12 42/47/12
f 31/42/13 29/4/13 33/48/13 35/43/13
f 30/3/14 32/41/14 36/44/14 34/49/14
f 29/4/15 30/3/15 34/49/15 33/48/15
f 37/50/16 38/51/16 40/45/16 39/52/16
f 33/48/17 34/49/17 38/51/17 37/50/17
f 36/44/18 35/43/18 39/52/18 40/45/18
f 35/43/19 33/48/19 37/50/19 39/52/19
f 42/47/2 44/46/2 48/53/2 46/54/2
f 40/45/20 38/51/20 43/55/20 44/46/20
f 34/49/21 36/44/21 42/47/21 41/56/21
f 38/51/22 34/49/22 41/56/22 43/55/22
f 47/57/1 45/58/1 49/59/1 51/60/1
f 41/56/4 42/47/4 46/54/4 45/58/4
f 43/55/1 41/56/1 45/58/1 47/57/1
f 44/46/5 43/55/5 47/57/5 48/53/5
f 49/59/3 50/61/3 52/62/3 51/60/3
f 48/53/5 47/57/5 51/60/5 52/62/5
f 48/53/5 52/62/5 56/63/5 54/64/5
f 45/58/4 46/54/4 50/61/4 49/59/4
f 56/63/3 55/65/3 155/66/3 156/67/3
f 52/62/3 50/61/3 55/65/3 56/63/3
f 50/61/4 46/54/4 53/68/4 55/65/4
f 46/54/6 48/53/6 54/64/6 53/68/6
f 85/69/1 89/70/1 90/71/1 86/72/1
f 199/73/23 200/74/23 203/75/23 204/76/23
f 67/77/1 72/78/1 70/79/1 68/80/1
f 59/81/2 61/16/2 62/15/2 60/82/2
f 62/17/3 65/83/3 66/84/3 60/85/3
f 60/85/3 66/84/3 67/77/3 58/86/3
f 58/86/3 67/77/3 68/80/3 64/22/3
f 64/22/3 68/80/3 65/83/3 62/17/3
f 72/78/1 76/87/1 74/88/1 70/79/1
f 65/83/2 69/89/2 71/90/2 66/84/2
f 68/80/5 70/79/5 69/89/5 65/83/5
f 66/84/4 71/90/4 72/78/4 67/77/4
f 75/91/4 79/92/4 80/93/4 76/87/4
f 69/89/2 73/94/2 75/91/2 71/90/2
f 71/90/4 75/91/4 76/87/4 72/78/4
f 70/79/5 74/88/5 73/94/5 69/89/5
f 77/95/3 78/96/3 80/93/3 79/92/3
f 74/88/5 78/96/5 77/95/5 73/94/5
f 76/87/1 80/93/1 78/96/1 74/88/1
f 75/91/4 81/97/4 83/98/4 79/92/4
f 82/99/2 84/100/2 83/98/2 81/97/2
f 79/92/3 83/98/3 84/100/3 77/95/3
f 77/95/5 84/100/5 82/99/5 73/94/5
f 73/94/6 82/99/6 81/97/6 75/91/6
f 57/101/24 85/69/24 86/72/24 58/102/24
f 58/102/25 86/72/25 87/103/25 60/82/25
f 60/82/26 87/103/26 88/104/26 59/81/26
f 59/81/27 88/104/27 85/69/27 57/101/27
f 92/105/28 96/106/28 95/107/28 91/108/28
f 87/103/2 92/105/2 91/108/2 88/104/2
f 88/104/6 91/108/6 89/70/6 85/69/6
f 86/72/3 90/71/3 92/105/3 87/103/3
f 96/106/12 102/109/12 104/110/12 100/111/12
f 91/108/29 95/107/29 93/112/29 89/70/29
f 90/71/30 94/113/30 96/106/30 92/105/30
f 89/70/31 93/112/31 94/113/31 90/71/31
f 97/114/32 99/115/32 100/111/32 98/116/32
f 93/112/33 97/114/33 98/116/33 94/113/33
f 96/106/34 100/111/34 99/115/34 95/107/34
f 95/107/35 99/115/35 97/114/35 93/112/35
f 102/109/2 106/117/2 108/118/2 104/110/2
f 100/111/21 104/110/21 103/119/21 98/116/21
f 94/113/20 101/120/20 102/109/20 96/106/20
f 98/116/22 103/119/22 101/120/22 94/113/22
f 107/121/1 111/122/1 109/123/1 105/124/1
f 101/120/5 105/124/5 106/117/5 102/109/5
f 103/119/1 107/121/1 105/124/1 101/120/1
f 104/110/4 108/118/4 107/121/4 103/119/4
f 109/123/3 111/122/3 112/125/3 110/126/3
f 108/118/4 112/125/4 111/122/4 107/121/4
f 108/118/4 114/127/4 116/128/4 112/125/4
f 105/124/5 109/123/5 110/126/5 106/117/5
f 113/129/2 115/130/2 116/128/2 114/127/2
f 112/125/3 116/128/3 115/130/3 110/126/3
f 110/126/5 115/130/5 113/129/5 106/117/5
f 106/117/6 113/129/6 114/127/6 108/118/6
f 118/131/36 119/132/36 126/133/36 123/134/36
f 3/135/6 61/136/6 118/131/6 117/137/6
f 61/136/6 59/138/6 119/132/6 118/131/6
f 59/138/6 57/139/6 120/140/6 119/132/6
f 57/139/6 63/141/6 121/142/6 120/140/6
f 63/141/6 1/143/6 122/144/6 121/142/6
f 1/143/6 3/135/6 117/137/6 122/144/6
f 125/145/1 124/146/1 130/147/1 131/148/1
f 117/137/37 118/131/37 123/134/37 124/146/37
f 121/142/38 122/144/38 125/145/38 128/149/38
f 119/132/39 120/140/39 127/150/39 126/133/39
f 122/144/40 117/137/40 124/146/40 125/145/40
f 120/140/41 121/142/41 128/149/41 127/150/41
f 130/147/42 129/151/42 135/152/42 136/153/42
f 127/150/1 128/149/1 134/154/1 133/155/1
f 123/134/1 126/133/1 132/156/1 129/151/1
f 124/146/1 123/134/1 129/151/1 130/147/1
f 128/149/1 125/145/1 131/148/1 134/154/1
f 126/133/1 127/150/1 133/155/1 132/156/1
f 139/157/43 140/158/43 146/159/43 145/160/43
f 134/154/44 131/148/44 137/161/44 140/158/44
f 132/156/45 133/155/45 139/157/45 138/162/45
f 131/148/46 130/147/46 136/153/46 137/161/46
f 133/155/47 134/154/47 140/158/47 139/157/47
f 129/151/48 132/156/48 138/162/48 135/152/48
f 146/159/49 143/163/49 149/164/49 152/165/49
f 135/152/50 138/162/50 144/166/50 141/167/50
f 136/153/51 135/152/51 141/167/51 142/168/51
f 140/158/52 137/161/52 143/163/52 146/159/52
f 138/162/4 139/157/4 145/160/4 144/166/4
f 137/161/5 136/153/5 142/168/5 143/163/5
f 148/169/6 147/170/6 150/171/6 151/172/6 152/165/6 149/164/6
f 144/166/53 145/160/53 151/172/53 150/171/53
f 143/163/54 142/168/54 148/169/54 149/164/54
f 145/160/55 146/159/55 152/165/55 151/172/55
f 141/167/56 144/166/56 150/171/56 147/170/56
f 142/168/57 141/167/57 147/170/57 148/169/57
f 153/173/2 154/174/2 156/67/2 155/66/2
f 54/64/5 56/63/5 156/67/5 154/174/5
f 55/65/4 53/68/4 153/173/4 155/66/4
f 53/68/3 54/64/3 162/175/3 161/176/3
f 63/177/1 64/178/1 194/6/1 193/5/1
f 64/178/1 2/179/1 195/7/1 194/6/1
f 2/179/1 1/180/1 196/8/1 195/7/1
f 1/180/1 63/177/1 193/5/1 196/8/1
f 63/177/1 57/181/1 198/182/1 197/183/1
f 57/181/1 58/184/1 199/73/1 198/182/1
f 58/184/1 64/178/1 200/74/1 199/73/1
f 64/178/1 63/177/1 197/183/1 200/74/1
f 201/185/58 204/76/58 208/186/58 205/187/58
f 200/74/5 197/183/5 202/188/5 203/75/5
f 198/182/4 199/73/4 204/76/4 201/185/4
f 197/183/59 198/182/59 201/185/59 202/188/59
f 205/187/60 208/186/60 212/189/60 209/190/60
f 202/188/61 201/185/61 205/187/61 206/191/61
f 204/76/62 203/75/62 207/192/62 208/186/62
f 203/75/63 202/188/63 206/191/63 207/192/63
f 212/189/64 211/193/64 215/194/64 216/195/64
f 206/191/65 205/187/65 209/190/65 210/196/65
f 208/186/66 207/192/66 211/193/66 212/189/66
f 207/192/67 206/191/67 210/196/67 211/193/67
f 213/197/68 216/195/68 220/198/68 217/199/68
f 211/193/69 210/196/69 214/200/69 215/194/69
f 209/190/70 212/189/70 216/195/70 213/197/70
f 210/196/71 209/190/71 213/197/71 214/200/71
f 218/201/72 217/199/72 220/198/72 219/202/72
f 214/200/73 213/197/73 217/199/73 218/201/73
f 216/195/74 215/194/74 219/202/74 220/198/74
f 215/194/75 214/200/75 218/201/75 219/202/75
g Player_Cube.018_Metal
usemtl Metal
f 153/173/4 53/68/4 157/203/4 159/204/4
f 157/203/6 158/205/6 160/206/6 159/204/6
f 54/64/5 158/205/5 164/207/5 162/175/5
f 54/64/5 154/174/5 160/206/5 158/205/5
f 160/206/5 154/174/5 166/208/5 168/209/5
f 161/176/1 162/175/1 164/207/1 163/210/1
f 157/203/4 53/68/4 161/176/4 163/210/4
f 158/205/76 157/203/76 163/210/76 164/207/76
f 168/209/5 166/208/5 170/211/5 172/212/5
f 153/173/4 159/204/4 167/213/4 165/214/4
f 154/174/3 153/173/3 165/214/3 166/208/3
f 159/204/6 160/206/6 168/209/6 167/213/6
f 179/215/6 180/216/6 183/217/6 184/218/6
f 167/213/6 168/209/6 172/212/6 171/219/6
f 165/214/4 167/213/4 171/219/4 169/220/4
f 166/208/3 165/214/3 169/220/3 170/211/3
f 170/211/1 169/220/1 174/221/1 173/222/1
f 169/220/1 171/219/1 175/223/1 174/221/1
f 171/219/1 172/212/1 176/224/1 175/223/1
f 172/212/1 170/211/1 173/222/1 176/224/1
f 173/222/2 174/221/2 178/225/2 177/226/2
f 174/221/2 175/223/2 179/215/2 178/225/2
f 175/223/2 176/224/2 180/216/2 179/215/2
f 176/224/2 173/222/2 177/226/2 180/216/2
f 187/227/3 188/228/3 191/229/3 192/230/3
f 180/216/5 177/226/5 182/231/5 183/217/5
f 178/225/4 179/215/4 184/218/4 181/232/4
f 177/226/3 178/225/3 181/232/3 182/231/3
f 182/231/2 181/232/2 186/233/2 185/234/2
f 181/232/2 184/218/2 187/227/2 186/233/2
f 184/218/2 183/217/2 188/228/2 187/227/2
f 183/217/2 182/231/2 185/234/2 188/228/2
f 190/235/2 189/236/2 192/230/2 191/229/2
f 188/228/4 185/234/4 190/235/4 191/229/4
f 186/233/5 187/227/5 192/230/5 189/236/5
f 185/234/6 186/233/6 189/236/6 190/235/6
